# xmcd CD database file
#
# Track frame offsets:
#	150
#	15174
#	30534
#	47535
#	65309
#	80871
#	98886
#	115977
#	134752
#	151245
#	174735
#
# Disc length: 2510 seconds
#
# Revision: 2
# Processed by: cddbd v1.5.2PL0 Copyright (c) Steve Scherf et al.
# Submitted via: FreeDB 13.2
#
DISCID=8909cc0b
DTITLE=Big Fat Snake - What Is Left Is Right
DYEAR=2009
DGENRE=Rock
TTITLE0=Different Day
TTITLE1=Addicted
TTITLE2=What Is Left Is Right
TTITLE3=Up in the Sky
TTITLE4=Tight
TTITLE5=Shadow
TTITLE6=101%
TTITLE7=Sittin' by the Road
TTITLE8=Stop Sleeping with the Lights On
TTITLE9=First Thing (on My Mind)
TTITLE10=Hymn for You
EXTD=Mermaid Records\nMR 0019
EXTT0=
EXTT1=
EXTT2=
EXTT3=
EXTT4=
EXTT5=
EXTT6=
EXTT7=
EXTT8=
EXTT9=
EXTT10=
PLAYORDER=
